<svg width="48" height="48" viewBox="0 0 48 48" fill="none" xmlns="http://www.w3.org/2000/svg">
<g clip-path="url(#clip0_23_70)">
<path d="M24 0C25.8964 0 27.4286 1.34062 27.4286 3V5.82187L29.0357 4.41562C30.0429 3.53437 31.6714 3.53437 32.6679 4.41562C33.6643 5.29688 33.675 6.72188 32.6679 7.59375L27.4179 12.1875V18.7781L33.9964 15.4219L35.8929 9.225C36.2572 8.025 37.6714 7.3125 39.0429 7.63125C40.4143 7.95 41.2286 9.1875 40.8643 10.3875L40.3072 12.1969L42.8357 10.9031C44.475 10.0688 46.575 10.5563 47.5286 11.9813C48.4822 13.4062 47.9357 15.2531 46.2964 16.0875L43.5857 17.475L45.9107 18.0187C47.2822 18.3375 48.0964 19.575 47.7322 20.775C47.3679 21.975 45.9536 22.6875 44.5822 22.3688L37.3286 20.6719L30.8036 24L37.3286 27.3281L44.5822 25.6312C45.9536 25.3125 47.3679 26.025 47.7322 27.225C48.0964 28.425 47.2822 29.6625 45.9107 29.9812L43.5857 30.525L46.2964 31.9125C47.9357 32.7469 48.4822 34.5844 47.5286 36.0188C46.575 37.4531 44.475 37.9313 42.8357 37.0969L40.3072 35.8031L40.8643 37.6125C41.2286 38.8125 40.4143 40.05 39.0429 40.3688C37.6714 40.6875 36.2572 39.975 35.8929 38.775L33.9964 32.5781L27.4286 29.2219V35.8125L32.6786 40.4062C33.6857 41.2875 33.6857 42.7125 32.6786 43.5844C31.6714 44.4562 30.0429 44.4656 29.0464 43.5844L27.4393 42.1781V45C27.4393 46.6594 25.9072 48 24.0107 48C22.1143 48 20.5822 46.6594 20.5822 45V42.1781L18.975 43.5844C17.9679 44.4656 16.3393 44.4656 15.3429 43.5844C14.3464 42.7031 14.3357 41.2781 15.3429 40.4062L20.5929 35.8125V29.2219L14.0143 32.5781L12.1179 38.775C11.7536 39.975 10.3393 40.6875 8.96787 40.3688C7.59644 40.05 6.78216 38.8125 7.14644 37.6125L7.70359 35.8031L5.15358 37.0875C3.5143 37.9219 1.4143 37.4344 0.460728 36.0094C-0.492843 34.5844 0.0642995 32.7375 1.69287 31.9031L4.40358 30.5156L2.07859 29.9719C0.707157 29.6531 -0.107129 28.4156 0.257157 27.2156C0.621442 26.0156 2.03573 25.3031 3.40716 25.6219L10.6607 27.3187L17.1964 24L10.6714 20.6719L3.41787 22.3688C2.04644 22.6875 0.632157 21.975 0.267871 20.775C-0.0964148 19.575 0.717871 18.3375 2.0893 18.0187L4.4143 17.475L1.70359 16.0875C0.0642994 15.2531 -0.482129 13.4156 0.471442 11.9906C1.42501 10.5656 3.52501 10.0781 5.1643 10.9125L7.69287 12.2062L7.13573 10.3969C6.77144 9.19688 7.58573 7.95937 8.95716 7.64062C10.3286 7.32188 11.7429 8.03438 12.1072 9.23438L14.0036 15.4313L20.5714 18.7781V12.1781L15.3214 7.59375C14.3143 6.7125 14.3143 5.2875 15.3214 4.41562C16.3286 3.54375 17.9572 3.53437 18.9536 4.41562L20.5607 5.82187V3C20.5607 1.34062 22.0929 0 23.9893 0H24Z" fill="white"/>
</g>
<defs>
<clipPath id="clip0_23_70">
<rect width="48" height="48" fill="white"/>
</clipPath>
</defs>
</svg>
