<svg width="48" height="48" viewBox="0 0 48 48" fill="none" xmlns="http://www.w3.org/2000/svg">
<g clip-path="url(#clip0_23_72)">
<path d="M4.8 6V33H43.2V6H4.8ZM0 6C0 2.69063 2.1525 0 4.8 0H43.2C45.8475 0 48 2.69063 48 6V33C48 36.3094 45.8475 39 43.2 39H4.8C2.1525 39 0 36.3094 0 33V6ZM9.6 42H38.4C39.7275 42 40.8 43.3406 40.8 45C40.8 46.6594 39.7275 48 38.4 48H9.6C8.2725 48 7.2 46.6594 7.2 45C7.2 43.3406 8.2725 42 9.6 42Z" fill="white"/>
</g>
<defs>
<clipPath id="clip0_23_72">
<rect width="48" height="48" fill="white"/>
</clipPath>
</defs>
</svg>
