<svg width="48" height="48" viewBox="0 0 48 48" fill="none" xmlns="http://www.w3.org/2000/svg">
<path d="M4.065 19.0219C9.24 12.8156 16.26 9 24 9C31.74 9 38.76 12.8156 43.935 19.0219C44.895 20.1656 46.41 20.1281 47.325 18.9375C48.24 17.7469 48.21 15.8438 47.2575 14.7C41.2275 7.45312 33.03 3 24 3C14.97 3 6.7725 7.45312 0.734997 14.6906C-0.217503 15.8438 -0.247503 17.7375 0.667497 18.9375C1.5825 20.1375 3.105 20.175 4.0575 19.0219H4.065ZM24 24C28.26 24 32.145 25.9781 35.115 29.25C36.1125 30.3469 37.6275 30.225 38.505 28.9875C39.3825 27.75 39.285 25.8469 38.295 24.75C34.485 20.55 29.475 18 24 18C18.525 18 13.515 20.55 9.7125 24.75C8.715 25.8469 8.625 27.7406 9.5025 28.9875C10.38 30.2344 11.895 30.3469 12.8925 29.25C15.855 25.9781 19.74 24 24.0075 24H24ZM28.8 39C28.8 37.4087 28.2943 35.8826 27.3941 34.7574C26.4939 33.6321 25.273 33 24 33C22.727 33 21.5061 33.6321 20.6059 34.7574C19.7057 35.8826 19.2 37.4087 19.2 39C19.2 40.5913 19.7057 42.1174 20.6059 43.2426C21.5061 44.3679 22.727 45 24 45C25.273 45 26.4939 44.3679 27.3941 43.2426C28.2943 42.1174 28.8 40.5913 28.8 39Z" fill="white"/>
</svg>
